HIERARCHY
ROOT Hips
{
	OFFSET 0.000000 0.000000 0.000000 
	CHANNELS 6 Xposition Yposition Zposition Zrotation Yrotation Xrotation
	JOINT LeftUpLeg
	{
		OFFSET 1.363060 -1.794630 0.839290 
		CHANNELS 3 Zrotation Yrotation Xrotation
		JOINT LeftLeg
		{
			OFFSET 2.448110 -6.726130 0.000000 
			CHANNELS 3 Zrotation Yrotation Xrotation
			JOINT LeftFoot
			{
				OFFSET 2.562200 -7.039590 0.000000 
				CHANNELS 3 Zrotation Yrotation Xrotation
				JOINT LeftToeBase
				{
					OFFSET 0.157640 -0.433110 2.322550 
					CHANNELS 3 Zrotation Yrotation Xrotation
					End Site
					{
						OFFSET 0.000000 0.000000 0.000000 
					}
				}
			}
		}
	}
	JOINT RightUpLeg
	{
		OFFSET -1.305520 -1.794630 0.839290 
		CHANNELS 3 Zrotation Yrotation Xrotation
		JOINT RightLeg
		{
			OFFSET -2.542530 -6.985550 0.000000 
			CHANNELS 3 Zrotation Yrotation Xrotation
			JOINT RightFoot
			{
				OFFSET -2.568260 -7.056230 0.000000 
				CHANNELS 3 Zrotation Yrotation Xrotation
				JOINT RightToeBase
				{
					OFFSET -0.164730 -0.452590 2.363150 
					CHANNELS 3 Zrotation Yrotation Xrotation
					End Site
					{
						OFFSET 0.000000 0.000000 0.000000 
					}
				}
			}
		}
	}
	JOINT Spine
	{
		OFFSET 0.028270 2.035590 -0.193380 
		CHANNELS 3 Zrotation Yrotation Xrotation
		JOINT Spine1
		{
			OFFSET 0.056720 2.048850 -0.042750 
			CHANNELS 3 Zrotation Yrotation Xrotation
			JOINT Neck1
			{
				OFFSET -0.054170 1.746240 0.172020 
				CHANNELS 3 Zrotation Yrotation Xrotation
				JOINT Head
				{
					OFFSET 0.104070 1.761360 -0.123970 
					CHANNELS 3 Zrotation Yrotation Xrotation
					End Site
					{
						OFFSET 0.000000 0.000000 0.000000 
					}
				}
			}
			JOINT LeftArm
			{
				OFFSET 3.362410 1.200890 -0.311210 
				CHANNELS 3 Zrotation Yrotation Xrotation
				JOINT LeftForeArm
				{
					OFFSET 4.983000 -0.000000 -0.000000 
					CHANNELS 3 Zrotation Yrotation Xrotation
					JOINT LeftHand
					{
						OFFSET 3.483560 -0.000000 -0.000000 
						CHANNELS 3 Zrotation Yrotation Xrotation
						JOINT LeftHandIndex1
						{
							OFFSET 0.715260 -0.000000 -0.000000 
							CHANNELS 3 Zrotation Yrotation Xrotation
							End Site
							{
								OFFSET 0.000000 0.000000 0.000000 
							}
						}
					}
				}
			}
			JOINT RightArm
			{
				OFFSET -3.136600 1.374050 -0.404650 
				CHANNELS 3 Zrotation Yrotation Xrotation
				JOINT RightForeArm
				{
					OFFSET -5.241900 -0.000000 -0.000000 
					CHANNELS 3 Zrotation Yrotation Xrotation
					JOINT RightHand
					{
						OFFSET -3.444170 -0.000000 -0.000000 
						CHANNELS 3 Zrotation Yrotation Xrotation
						JOINT RightHandIndex1
						{
							OFFSET -0.622530 -0.000000 -0.000000 
							CHANNELS 3 Zrotation Yrotation Xrotation
							End Site
							{
								OFFSET 0.000000 0.000000 0.000000 
							}
						}
					}
				}
			}
		}
	}
}
MOTION
Frames: 9
Frame Time: 0.041667
11.170961 17.459328 21.803571 -177.693285 -18.221377 -169.123331 -22.068152 -6.340199 -9.715577 1.266595 10.735086 30.588654 -0.368263 13.470278 -29.241550 0.389600 -4.008000 -11.099100 19.059450 17.612410 -30.984712 -3.801532 -14.612260 40.252785 0.360987 -6.075681 -10.287048 -0.002100 -0.295800 0.812600 -0.587566 10.015219 -4.415116 -6.793135 5.098573 2.583274 5.972885 13.755274 11.126971 -2.303100 7.603800 4.510800 -76.810562 0.444459 66.856928 96.572619 -55.377987 -71.296188 -0.330893 -0.826139 -2.947624 -7.125000 0.000000 0.000000 89.251832 -8.800396 23.843125 -84.547883 53.654794 -53.386546 1.403760 -0.945357 12.151480 7.125000 0.000000 0.000000 
11.186467 17.454963 21.862495 -177.354483 -18.493023 -169.098064 -21.766406 -7.601284 -9.647921 1.280136 10.786503 30.756847 -0.360817 14.028479 -30.097494 0.324900 -3.663900 -10.133000 19.346149 17.319441 -31.457488 -3.775313 -14.592031 40.153008 0.357439 -5.968979 -9.975550 -0.000300 -0.108100 0.296900 -0.540008 9.773226 -4.427014 -6.617514 4.989043 2.726455 6.420368 12.382993 11.464258 -1.990800 6.939700 4.597200 -76.760339 0.751380 66.915788 96.409348 -55.354381 -71.149663 -0.301874 -0.810200 -2.994314 -7.125000 0.000000 0.000000 89.264837 -8.774359 24.146800 -84.183907 53.670185 -52.981842 1.397524 -0.965707 12.239787 7.125000 0.000000 0.000000 
11.204155 17.452436 21.920499 -177.194938 -18.760727 -169.060963 -21.587227 -8.434270 -9.653254 1.281696 10.810785 30.821215 -0.401225 14.408390 -30.421643 0.313900 -3.601900 -9.959200 19.435029 17.175190 -31.883372 -3.787291 -14.616558 40.212672 0.362128 -5.970824 -9.846325 -0.000200 -0.081400 0.223600 -0.485106 9.462591 -4.415086 -6.265554 4.844747 2.939369 6.813784 10.795619 11.746117 -1.709200 6.157500 4.631900 -76.715223 0.944778 66.895866 96.093048 -55.339621 -70.849494 -0.298605 -0.786139 -2.818849 -7.125000 0.000000 0.000000 89.021207 -8.599690 24.582178 -83.773080 53.679237 -52.564874 1.393129 -0.967960 12.441951 7.125000 0.000000 0.000000 
11.223681 17.451977 21.972646 -177.282285 -18.945115 -168.990867 -21.600266 -8.729732 -9.834449 1.297864 10.853671 30.922865 -0.442022 14.508572 -30.338018 0.356300 -3.834700 -10.612000 19.316734 16.905883 -32.279401 -3.807503 -14.643222 40.297124 0.332032 -5.745610 -9.810588 -0.001500 -0.247000 0.678600 -0.451112 9.208752 -4.387422 -5.839387 4.726799 3.187315 7.259048 8.962770 12.013054 -1.374800 5.246400 4.657800 -76.693705 1.047098 66.813417 95.745176 -55.331507 -70.506742 -0.300085 -0.770251 -2.503024 -7.125000 0.000000 0.000000 89.033020 -8.387865 24.629432 -83.639031 53.687059 -52.431024 1.380097 -0.983523 13.052225 7.125000 0.000000 0.000000 
11.245964 17.448416 22.020657 -177.424692 -19.025350 -168.923050 -21.642435 -8.835007 -10.052876 1.312968 10.892374 31.008105 -0.471124 14.490059 -30.150399 0.376100 -3.938900 -10.904900 19.145527 16.609677 -32.689518 -3.849618 -14.692430 40.469545 0.283639 -5.367048 -9.709077 -0.001400 -0.238900 0.656300 -0.421939 8.928370 -4.354718 -5.425495 4.591345 3.474384 7.723547 6.985905 12.355102 -1.008600 4.268900 4.777400 -76.682364 1.295022 66.459114 95.409210 -55.322970 -70.172357 -0.296235 -0.752847 -2.163744 -7.125000 0.000000 0.000000 89.189908 -8.100704 24.637380 -83.514066 53.704874 -52.291244 1.365375 -1.004604 13.883440 7.125000 0.000000 0.000000 
11.267788 17.441525 22.065797 -177.629356 -19.025754 -168.867102 -21.707266 -8.485880 -10.416322 1.334376 10.936546 31.102303 -0.510155 14.327190 -29.700731 0.428000 -4.198800 -11.636600 18.920077 16.221204 -33.099840 -3.911665 -14.759720 40.718333 0.219638 -4.831688 -9.482387 -0.000300 -0.120400 0.330800 -0.385084 8.579924 -4.308084 -4.920868 4.416350 3.807129 8.117007 5.036930 12.695592 -0.650300 3.294100 4.884600 -76.767791 1.782566 65.774907 95.211096 -55.327804 -69.964812 -0.296792 -0.726995 -1.702470 -7.125000 0.000000 0.000000 88.814495 -7.692647 25.184178 -82.972557 53.719578 -51.752667 1.351512 -1.012842 14.346991 7.125000 0.000000 0.000000 
11.286165 17.436701 22.109789 -177.897931 -18.981217 -168.878551 -21.820440 -7.462174 -10.959310 1.368926 10.993274 31.228343 -0.535247 13.895315 -28.928256 0.478600 -4.436600 -12.308200 18.730720 15.524773 -33.524529 -3.993987 -14.840762 41.042368 0.131047 -4.071724 -9.169234 -0.000400 -0.124600 0.342300 -0.332802 8.183150 -4.244500 -4.298038 4.211502 4.135472 8.384149 3.191378 13.015896 -0.338400 2.356500 4.965500 -77.049954 2.364521 64.824149 95.153948 -55.345920 -69.877082 -0.296417 -0.703859 -1.204023 -7.125000 0.000000 0.000000 87.998539 -7.248219 26.116301 -82.497790 53.714176 -51.295039 1.336221 -1.002556 14.311989 7.125000 0.000000 0.000000 
11.301786 17.434863 22.152172 -178.042685 -18.935407 -168.959777 -21.850864 -6.586243 -11.377730 1.397920 11.038968 31.334669 -0.481397 13.295005 -28.347807 0.533900 -4.682200 -13.004200 18.679899 14.794952 -34.006846 -4.101074 -14.950423 41.470421 0.039656 -3.241000 -8.758826 0.000000 0.028500 -0.078200 -0.282458 7.782835 -4.182845 -3.874527 4.004161 4.414182 8.532628 1.366283 13.363090 -0.129000 1.435300 5.087600 -77.189180 2.956616 63.851328 95.248049 -55.367208 -69.934669 -0.289516 -0.689398 -0.966857 -7.125000 0.000000 0.000000 87.459479 -6.797994 26.876697 -82.429723 53.719213 -51.223462 1.331642 -0.979669 14.118474 7.125000 0.000000 0.000000 
11.315455 17.431991 22.191225 -178.068399 -18.896484 -169.064661 -21.810010 -6.153682 -11.565336 1.407315 11.053544 31.360923 -0.410026 12.791995 -28.013405 0.474100 -4.415800 -12.249600 18.687177 14.200908 -34.565742 -4.247080 -15.107359 42.060657 -0.043677 -2.445729 -8.338206 -0.001800 0.276900 -0.760800 -0.249557 7.424107 -4.134872 -3.667722 3.822157 4.630301 8.745588 -0.452397 13.778135 0.136100 0.517700 5.279000 -77.115338 3.637087 62.960571 95.509863 -55.384716 -70.166228 -0.280986 -0.676689 -0.857172 -7.125000 0.000000 0.000000 87.186550 -6.418537 27.407563 -82.610962 53.735158 -51.382319 1.333871 -0.959216 13.752747 7.125000 0.000000 0.000000 
